<?xml version="1.0" encoding="utf-8"?>
<!-- Generator: Adobe Illustrator 22.1.0, SVG Export Plug-In . SVG Version: 6.00 Build 0)  -->
<svg version="1.1" id="Layer_1" xmlns="http://www.w3.org/2000/svg" xmlns:xlink="http://www.w3.org/1999/xlink" x="0px" y="0px"
	 viewBox="0 0 1417.323 1417.323" style="enable-background:new 0 0 1417.323 1417.323;" xml:space="preserve">
<style type="text/css">
	.st0{fill:none;stroke:#000000;stroke-width:0.25;stroke-miterlimit:10;}
</style>
<path class="st0" d="M1303.441,901.032h-11.339v-15.591h-28.346v5.669h-8.504v-5.669l-8.504,0v-8.504l8.504,0v-5.669h8.504v5.669
	h28.346v-15.59h11.339v-56.693h-11.339V611.898h11.339v-56.693h-11.339v-15.591h-28.346v5.669h-8.504v-5.669h-8.504v-8.504h8.504
	v-5.669h8.504v5.669h28.346v-15.59h11.339v-56.693h-11.339V436.15h-22.677v-11.339h-56.693v11.339h-15.581v28.346h5.669V473h-5.669
	v8.504h-8.504V473h-5.669v-8.504h5.669V436.15h-15.6v-11.339h-56.693v11.339h-95.66v-11.339h-56.693v11.339h-15.591v28.346h5.669
	V473h-5.669v8.504h-8.504V473h-5.669v-8.504h5.669V436.15h-15.591v-11.339h-56.693v11.339h-95.669v-11.339h-56.693v11.339h-15.591
	v28.346h5.669V473h-5.669v8.504h-8.504V473h-5.669v-8.504h5.669V436.15h-15.591v-11.339h-56.693v11.339h-95.669v-11.339h-56.693
	v11.339H450.93v28.346h5.669V473h-5.669v8.504h-8.504V473h-5.669v-8.504h5.669V436.15h-15.591v-11.339h-56.693v11.339h-70.167
	v-11.339h-56.693v11.339h-15.581v28.332h5.669v8.504h-5.669v8.504h-8.504v-8.504h-5.669v-8.504h5.669V436.15h-15.6v-11.339h-56.693
	v11.339h-22.677v22.677H112.89v56.693h11.339v15.591h28.346v-5.669h8.504v5.669h8.504v8.504h-8.504v5.669h-8.504v-5.669h-28.346
	v15.591H112.89v56.693h11.339v192.756H112.89v56.693h11.339v15.591h28.346v-5.669h8.504v5.669h8.504v8.504h-8.504v5.669h-8.504
	v-5.669h-28.346v15.591H112.89v56.693h11.339v22.677h22.677v11.339h56.693v-11.339h15.6v-28.346h-5.669v-8.504h5.669v-8.504h8.504
	v8.504h5.669v8.504h-5.669v28.346h15.581v11.339h56.693v-11.339h70.167v11.339h56.693v-11.339h15.591v-28.346h-5.669v-8.504h5.669
	v-8.504h8.504v8.504h5.669v8.504h-5.669v28.346h15.591v11.339h56.693v-11.339h95.669v11.339h56.693v-11.339h15.591v-28.346h-5.669
	v-8.504h5.669v-8.504h8.504v8.504h5.669v8.504h-5.669v28.346h15.591v11.339h56.693v-11.339h95.669v11.339h56.693v-11.339h15.591
	v-28.346h-5.669v-8.504h5.669v-8.504h8.504v8.504h5.669v8.504h-5.669v28.346h15.591v11.339h56.693v-11.339h95.669v11.339h56.693
	v-11.339h15.591v-28.346h-5.669v-8.504h5.669v-8.504h8.504v8.504h5.669v8.504h-5.669v28.346h15.591v11.339h56.693v-11.339h22.668
	v-22.677h11.339L1303.441,901.032z M359.235,850.008c-78.277,0-141.732-63.456-141.732-141.732s63.456-141.732,141.732-141.732
	s141.732,63.456,141.732,141.732S437.511,850.008,359.235,850.008z M702.232,850.008c-78.277,0-141.732-63.456-141.732-141.732
	s63.456-141.732,141.732-141.732s141.732,63.456,141.732,141.732S780.508,850.008,702.232,850.008z M1045.229,850.008
	c-78.277,0-141.732-63.456-141.732-141.732s63.456-141.732,141.732-141.732c78.276,0,141.732,63.456,141.732,141.732
	S1123.505,850.008,1045.229,850.008z"/>
</svg>
