<?xml version="1.0" encoding="utf-8"?>
<!-- Generator: Adobe Illustrator 22.1.0, SVG Export Plug-In . SVG Version: 6.00 Build 0)  -->
<svg version="1.1" id="Layer_1" xmlns="http://www.w3.org/2000/svg" xmlns:xlink="http://www.w3.org/1999/xlink" x="0px" y="0px"
	 viewBox="0 0 1417.323 1417.323" style="enable-background:new 0 0 1417.323 1417.323;" xml:space="preserve">
<style type="text/css">
	.st0{fill:none;stroke:#000000;stroke-width:0.001;stroke-miterlimit:10;}
</style>
<path class="st0" d="M1264.785,1267.251H68.431c-3.097,0-5.607-2.51-5.607-5.607V68.133c0-3.097,2.51-5.607,5.607-5.607h1196.354
	c3.097,0,5.607,2.51,5.607,5.607v1193.51C1270.392,1264.74,1267.882,1267.251,1264.785,1267.251z"/>
<rect x="71.346" y="105.046" class="st0" width="11.339" height="56.693"/>
<rect x="71.337" y="201.424" class="st0" width="11.339" height="56.693"/>
<circle class="st0" cx="77.006" cy="181.581" r="4.252"/>
<rect x="71.346" y="1071.66" class="st0" width="11.339" height="56.693"/>
<rect x="71.337" y="1168.038" class="st0" width="11.339" height="56.693"/>
<circle class="st0" cx="77.006" cy="1148.196" r="4.252"/>
<rect x="71.346" y="624.494" class="st0" width="11.339" height="56.693"/>
<rect x="71.337" y="720.872" class="st0" width="11.339" height="56.693"/>
<circle class="st0" cx="77.006" cy="701.029" r="4.252"/>
<rect x="71.342" y="848.077" class="st0" width="11.339" height="56.693"/>
<rect x="71.332" y="944.455" class="st0" width="11.339" height="56.693"/>
<circle class="st0" cx="77.001" cy="924.612" r="4.252"/>
<rect x="71.346" y="364.769" class="st0" width="11.339" height="56.693"/>
<rect x="71.337" y="461.147" class="st0" width="11.339" height="56.693"/>
<circle class="st0" cx="77.006" cy="441.305" r="4.252"/>
<rect x="1250.559" y="105.073" class="st0" width="11.339" height="56.693"/>
<rect x="1250.549" y="201.451" class="st0" width="11.339" height="56.693"/>
<circle class="st0" cx="1256.219" cy="181.609" r="4.252"/>
<rect x="1250.559" y="1071.687" class="st0" width="11.339" height="56.693"/>
<rect x="1250.549" y="1168.065" class="st0" width="11.339" height="56.693"/>
<circle class="st0" cx="1256.219" cy="1148.223" r="4.252"/>
<rect x="1250.559" y="624.521" class="st0" width="11.339" height="56.693"/>
<rect x="1250.549" y="720.899" class="st0" width="11.339" height="56.693"/>
<circle class="st0" cx="1256.219" cy="701.056" r="4.252"/>
<rect x="1250.554" y="848.104" class="st0" width="11.339" height="56.693"/>
<rect x="1250.545" y="944.482" class="st0" width="11.339" height="56.693"/>
<circle class="st0" cx="1256.214" cy="924.639" r="4.252"/>
<rect x="1250.559" y="364.796" class="st0" width="11.339" height="56.693"/>
<rect x="1250.549" y="461.174" class="st0" width="11.339" height="56.693"/>
<circle class="st0" cx="1256.219" cy="441.332" r="4.252"/>
<rect x="128.03" y="48.353" transform="matrix(6.123234e-17 -1 1 6.123234e-17 56.9995 210.3987)" class="st0" width="11.339" height="56.693"/>
<rect x="224.417" y="48.353" transform="matrix(6.123234e-17 -1 1 6.123234e-17 153.3868 306.786)" class="st0" width="11.339" height="56.693"/>
<circle class="st0" cx="181.888" cy="76.7" r="4.252"/>
<rect x="1097.488" y="48.353" transform="matrix(6.123234e-17 -1 1 6.123234e-17 1026.4576 1179.8568)" class="st0" width="11.339" height="56.693"/>
<rect x="1193.866" y="48.353" transform="matrix(6.123234e-17 -1 1 6.123234e-17 1122.8356 1276.2349)" class="st0" width="11.339" height="56.693"/>
<circle class="st0" cx="1151.346" cy="76.7" r="4.252"/>
<rect x="600.008" y="48.352" transform="matrix(6.123234e-17 -1 1 6.123234e-17 528.9784 682.3755)" class="st0" width="11.339" height="56.693"/>
<rect x="696.386" y="48.352" transform="matrix(6.123234e-17 -1 1 6.123234e-17 625.3563 778.7535)" class="st0" width="11.339" height="56.693"/>
<circle class="st0" cx="653.866" cy="76.699" r="4.252"/>
<rect x="848.748" y="48.353" transform="matrix(6.123234e-17 -1 1 6.123234e-17 777.7175 931.1167)" class="st0" width="11.339" height="56.693"/>
<rect x="945.126" y="48.353" transform="matrix(6.123234e-17 -1 1 6.123234e-17 874.0955 1027.4946)" class="st0" width="11.339" height="56.693"/>
<circle class="st0" cx="902.606" cy="76.7" r="4.252"/>
<rect x="351.267" y="48.352" transform="matrix(6.123234e-17 -1 1 6.123234e-17 280.238 433.6351)" class="st0" width="11.339" height="56.693"/>
<rect x="447.645" y="48.352" transform="matrix(6.123234e-17 -1 1 6.123234e-17 376.616 530.0131)" class="st0" width="11.339" height="56.693"/>
<circle class="st0" cx="405.126" cy="76.699" r="4.252"/>
<rect x="366.145" y="516.07" class="st0" width="11.339" height="56.693"/>
<rect x="366.135" y="612.448" class="st0" width="11.339" height="56.693"/>
<circle class="st0" cx="371.812" cy="592.605" r="4.252"/>
<rect x="366.14" y="793.865" class="st0" width="11.339" height="56.693"/>
<rect x="366.135" y="890.243" class="st0" width="11.339" height="56.693"/>
<circle class="st0" cx="371.816" cy="870.4" r="4.252"/>
<rect x="366.131" y="1071.66" class="st0" width="11.339" height="56.693"/>
<rect x="366.126" y="1168.038" class="st0" width="11.339" height="56.693"/>
<circle class="st0" cx="371.807" cy="1148.196" r="4.252"/>
<rect x="660.943" y="516.07" class="st0" width="11.339" height="56.693"/>
<rect x="660.934" y="612.448" class="st0" width="11.339" height="56.693"/>
<circle class="st0" cx="666.61" cy="592.605" r="4.252"/>
<rect x="660.938" y="793.865" class="st0" width="11.339" height="56.693"/>
<rect x="660.934" y="890.243" class="st0" width="11.339" height="56.693"/>
<circle class="st0" cx="666.615" cy="870.4" r="4.252"/>
<rect x="660.948" y="1071.66" class="st0" width="11.339" height="56.693"/>
<rect x="660.943" y="1168.038" class="st0" width="11.339" height="56.693"/>
<circle class="st0" cx="666.624" cy="1148.196" r="4.252"/>
<rect x="955.746" y="516.07" class="st0" width="11.339" height="56.693"/>
<rect x="955.737" y="612.448" class="st0" width="11.339" height="56.693"/>
<circle class="st0" cx="961.413" cy="592.605" r="4.252"/>
<rect x="955.742" y="793.865" class="st0" width="11.339" height="56.693"/>
<rect x="955.737" y="890.243" class="st0" width="11.339" height="56.693"/>
<circle class="st0" cx="961.418" cy="870.4" r="4.252"/>
<rect x="955.732" y="1071.66" class="st0" width="11.339" height="56.693"/>
<rect x="955.728" y="1168.038" class="st0" width="11.339" height="56.693"/>
<circle class="st0" cx="961.409" cy="1148.196" r="4.252"/>
</svg>
