<?xml version="1.0" encoding="utf-8"?>
<!-- Generator: Adobe Illustrator 22.1.0, SVG Export Plug-In . SVG Version: 6.00 Build 0)  -->
<svg version="1.1" id="Layer_1" xmlns="http://www.w3.org/2000/svg" xmlns:xlink="http://www.w3.org/1999/xlink" x="0px" y="0px"
	 viewBox="0 0 1417.3 1417.3" style="enable-background:new 0 0 1417.3 1417.3;" xml:space="preserve">
<style type="text/css">
	.st0{fill:none;stroke:#000000;stroke-width:1.000000e-03;stroke-miterlimit:10;}
</style>
<polygon class="st0" points="980.6,426.7 980.6,411.2 991.9,411.2 991.9,354.5 980.6,354.5 980.6,311.9 436.3,311.9 436.3,354.5 
	425,354.5 425,411.2 436.3,411.2 436.3,426.7 464.6,426.7 464.6,421.1 473.1,421.1 473.1,426.7 481.7,426.7 481.7,435.3 
	473.1,435.3 473.1,440.9 464.6,440.9 464.6,435.3 436.3,435.3 436.3,450.8 425,450.8 425,507.5 436.3,507.5 436.3,632.3 425,632.3 
	425,689 436.3,689 436.3,704.5 464.6,704.5 464.6,698.9 473.1,698.9 473.1,704.5 481.7,704.5 481.7,713 473.1,713 473.1,718.7 
	464.6,718.7 464.6,713 436.3,713 436.3,728.6 425,728.6 425,785.3 436.3,785.3 436.3,910.1 424.9,910.1 424.9,966.7 436.3,966.7 
	436.3,982.3 464.6,982.3 464.6,976.7 473.1,976.7 473.1,982.3 481.7,982.3 481.7,990.8 473.1,990.8 473.1,996.5 464.6,996.5 
	464.6,990.8 436.3,990.8 436.3,1006.4 424.9,1006.4 424.9,1063.1 436.3,1063.1 436.3,1105.6 980.6,1105.6 980.6,1063.1 
	991.9,1063.1 991.9,1006.4 980.6,1006.4 980.6,990.8 952.2,990.8 952.2,996.5 943.7,996.5 943.7,990.8 935.2,990.8 935.2,982.3 
	943.7,982.3 943.7,976.7 952.2,976.7 952.2,982.3 980.6,982.3 980.6,966.7 991.9,966.7 991.9,910.1 980.6,910.1 980.6,785.3 
	991.9,785.3 991.9,728.6 980.6,728.6 980.6,713 952.2,713 952.2,718.7 943.7,718.7 943.7,713 935.2,713 935.2,704.5 943.7,704.5 
	943.7,698.9 952.2,698.9 952.2,704.5 980.6,704.5 980.6,689 991.9,689 991.9,632.3 980.6,632.3 980.6,507.5 991.9,507.5 
	991.9,450.8 980.6,450.8 980.6,435.3 952.2,435.3 952.2,440.9 943.6,440.9 943.6,435.3 935.1,435.3 935.1,426.7 943.6,426.7 
	943.6,421.1 952.2,421.1 952.2,426.7 "/>
</svg>
