<?xml version="1.0" encoding="utf-8"?>
<!-- Generator: Adobe Illustrator 22.1.0, SVG Export Plug-In . SVG Version: 6.00 Build 0)  -->
<svg version="1.1" id="Layer_1" xmlns="http://www.w3.org/2000/svg" xmlns:xlink="http://www.w3.org/1999/xlink" x="0px" y="0px"
	 viewBox="0 0 1417.3 1417.3" style="enable-background:new 0 0 1417.3 1417.3;" xml:space="preserve">
<style type="text/css">
	.st0{fill:none;stroke:#000000;stroke-width:0.001;stroke-miterlimit:10;}
</style>
<path class="st0" d="M668.299,436.201L561.7,436.2v-11.3H505v11.3h-15.6v28.3h5.7v8.5h-5.7v8.5h-8.5V473h-5.7v-8.5h5.7v-28.3h-15.6
	v-11.3h-56.7v11.3H301.9v-11.3h-56.7v11.3h-15.6v28.3h5.7v8.5h-5.7v8.5h-8.5V473h-5.7v-8.5h5.7v-28.3h-15.6v-11.3h-56.7v11.3h-42.5
	v544.3h42.5v11.3h56.7v-11.3h15.6v-28.3h-5.7v-8.5h5.7v-8.5h8.5v8.5h5.7v8.5h-5.7v28.3h15.6v11.3h56.7v-11.3h106.7v11.3h56.7v-11.3
	h15.6v-28.3h-5.7v-8.5h5.7v-8.5h8.5v8.5h5.7v8.5h-5.7v28.3H505v11.3h56.7v-11.3h106.7v11.3h56.7v-11.3h15.6v-28.3H735v-8.5h5.7v-8.5
	h8.5v8.5h5.7v8.5h-5.7v28.3h15.6v11.3h56.7v-11.3H892v11.3h56.7v-11.3h15.6v-28.3h-5.7v-8.5h5.7v-8.5h8.5v8.5h5.7v8.5h-5.7v28.3
	h15.6v11.3h56.7v-11.3h70.5v11.3h56.7v-11.3h15.6v-28.3h-5.7v-8.5h5.7v-8.5h8.5v8.5h5.7v8.5h-5.7v28.3h15.6v11.3h56.7v-11.3h42.5
	l-0.2-544.4h-42.5v-11.3h-56.7v11.3h-15.6l0,0v28.3h5.7v0.1v8.5l0,0h-5.7v8.5h-8.5l0,0V473h-5.7l0,0v-8.5v-0.1h5.7v-28.3l0,0h-15.6
	v-11.3h-56.7v11.3h-70.5v-11.3h-56.7v11.3h-15.6v28.3h5.7v8.5h-5.7v8.5h-8.5V473h-5.7v-8.5h5.7v-28.3h-15.6v-11.3h-56.7v11.3h-70.5
	v-11.3h-56.7v11.3H749v28.3h5.7v8.6H749v8.6h-8.5V473h-5.7v-8.6h5.7v-28.3H725v-11.3h-56.7L668.299,436.201z M114.8,804.7h11.3v56.7
	h-11.3V804.7z M124.7,881.2c0,2.3-1.9,4.3-4.3,4.3s-4.3-1.9-4.3-4.3c0-2.3,1.9-4.3,4.3-4.3S124.7,878.8,124.7,881.2z M126.1,957.7
	h-11.3V901h11.3V957.7z M126.1,611.9h-11.3v-56.7h11.3V611.9z M116.2,535.4c0-2.3,1.9-4.3,4.3-4.3c2.3,0,4.3,1.9,4.3,4.3
	c0,2.3-1.9,4.3-4.3,4.3S116.2,537.7,116.2,535.4z M126.1,515.5h-11.3v-56.7h11.3V515.5z"/>
</svg>
