<?xml version="1.0" encoding="utf-8"?>
<!-- Generator: Adobe Illustrator 22.1.0, SVG Export Plug-In . SVG Version: 6.00 Build 0)  -->
<svg version="1.1" id="Layer_1" xmlns="http://www.w3.org/2000/svg" xmlns:xlink="http://www.w3.org/1999/xlink" x="0px" y="0px"
	 viewBox="0 0 2267.7 2267.7" style="enable-background:new 0 0 2267.7 2267.7;" xml:space="preserve">
<style type="text/css">
	.st0{fill:none;stroke:#000000;stroke-width:1.000000e-03;stroke-miterlimit:10;}
</style>
<circle class="st0" cx="1050.2" cy="1019.1" r="3.9"/>
<circle class="st0" cx="1189.1" cy="1019.1" r="3.9"/>
<circle class="st0" cx="1189.1" cy="1183.5" r="3.9"/>
<circle class="st0" cx="1050.2" cy="1183.5" r="3.9"/>
<circle class="st0" cx="1210.4" cy="997.8" r="4.3"/>
<circle class="st0" cx="1210.4" cy="1275.6" r="4.3"/>
<circle class="st0" cx="960.9" cy="997.8" r="4.3"/>
<circle class="st0" cx="960.9" cy="1275.6" r="4.3"/>
<g>
	<path class="st0" d="M946.8,988v19.6c0,4,0.4,7.2,4.4,7.2h65c4,0,7.2,3.2,7.2,7.2v171c0,2.1-0.9,4-2.4,5.4l-71.3,65.9
		c-1.5,1.4-2.8,4-2.8,6.1v15.1c0,4,0.4,7.2,4.4,7.2h15.6c1.7,0,3.4-0.6,4.7-1.7l35.6-30.5c1.3-1.1,3-1.7,4.7-1.7h144.6
		c1.9,0,3.7,0.8,5.1,2.1l29.8,29.8c1.4,1.4,3.2,2.1,5.1,2.1h23.8c4,0,7.2-3.2,7.2-7.2v-24.5c0-1.5-0.6-2.9-1.6-3.9l-15.7-15.7
		c-1.6-1.6-2.5-3.8-2.5-6v-197.1c0-2.2,0.9-4.4,2.5-5.9l15.8-15.8c1-1,1.6-2.5,1.6-3.9V988c0-4-3.2-7.2-7.2-7.2l-23.8,0
		c-1.9,0-3.7,0.8-5.1,2.1l-18.5,18.5c-1.4,1.4-3.2,2.1-5.1,2.1h-90.4c-1.9,0-3.7-0.8-5.1-2.1l-18.5-18.5c-1.4-1.4-3.2-2.1-5.1-2.1
		h-97.5C947.2,980.8,946.8,984,946.8,988z"/>
</g>
</svg>
