<?xml version="1.0" encoding="utf-8"?>
<!-- Generator: Adobe Illustrator 22.1.0, SVG Export Plug-In . SVG Version: 6.00 Build 0)  -->
<svg version="1.1" id="Layer_1" xmlns="http://www.w3.org/2000/svg" xmlns:xlink="http://www.w3.org/1999/xlink" x="0px" y="0px"
	 viewBox="0 0 2267.717 2267.717" style="enable-background:new 0 0 2267.717 2267.717;" xml:space="preserve">
<style type="text/css">
	.st0{fill:none;stroke:#000000;stroke-width:0.001;stroke-miterlimit:10;}
</style>
<circle class="st0" cx="1050.236" cy="1019.106" r="3.898"/>
<circle class="st0" cx="1189.134" cy="1019.106" r="3.898"/>
<circle class="st0" cx="1189.134" cy="1183.516" r="3.898"/>
<circle class="st0" cx="1050.236" cy="1183.516" r="3.898"/>
<circle class="st0" cx="1210.394" cy="997.795" r="4.252"/>
<circle class="st0" cx="1210.394" cy="1275.591" r="4.252"/>
<circle class="st0" cx="960.945" cy="997.795" r="4.252"/>
<circle class="st0" cx="960.945" cy="1275.591" r="4.252"/>
<g>
	<path class="st0" d="M943.937,987.991v19.608c0,3.979,3.225,7.204,7.204,7.204h64.963c3.979,0,7.204,3.225,7.204,7.204v170.988
		c0,2.052-0.875,4.007-2.406,5.374l-74.558,66.57c-1.531,1.367-2.406,3.321-2.406,5.374v15.083c0,3.979,3.225,7.204,7.204,7.204
		h15.643c1.72,0,3.383-0.615,4.688-1.734l35.638-30.547c1.306-1.119,2.969-1.734,4.688-1.734h144.588
		c1.911,0,3.743,0.759,5.094,2.11l29.796,29.796c1.351,1.351,3.183,2.11,5.094,2.11h23.828c3.979,0,7.204-3.225,7.204-7.204v-24.505
		c0-1.477-0.587-2.893-1.631-3.938l-15.722-15.722c-1.594-1.594-2.489-3.755-2.489-6.01v-197.106c0-2.221,0.882-4.351,2.453-5.921
		l15.759-15.759c1.044-1.044,1.631-2.461,1.631-3.938v-24.505c0-3.979-3.225-7.204-7.204-7.204l-23.828,0
		c-1.911,0-3.743,0.759-5.094,2.11l-18.457,18.457c-1.351,1.351-3.183,2.11-5.094,2.11h-90.41c-1.911,0-3.743-0.759-5.094-2.11
		l-18.457-18.457c-1.351-1.351-3.183-2.11-5.094-2.11h-97.529C947.162,980.787,943.937,984.013,943.937,987.991z"/>
</g>
</svg>
